<?xml version="1.0" encoding="UTF-8" standalone="no"?>
<!DOCTYPE svg PUBLIC "-//W3C//DTD SVG 1.1//EN"
 "http://www.w3.org/Graphics/SVG/1.1/DTD/svg11.dtd">
<!-- Generated by graphviz version 5.0.0 (20220707.1540)
 -->
<!-- Title: dependencies Pages: 1 -->
<svg width="409pt" height="174pt"
 viewBox="0.00 0.00 409.00 173.80" xmlns="http://www.w3.org/2000/svg" xmlns:xlink="http://www.w3.org/1999/xlink">
<g id="graph0" class="graph" transform="scale(1 1) rotate(0) translate(4 169.8)">
<title>dependencies</title>
<polygon fill="white" stroke="transparent" points="-4,4 -4,-169.8 405,-169.8 405,4 -4,4"/>
<text text-anchor="middle" x="200.5" y="-8.2" font-family="sans-serif" font-size="14.00">dependencies</text>
<g id="clust1" class="cluster">
<title>cluster_SeedModule</title>
<polygon fill="none" stroke="black" stroke-dasharray="1,5" points="8,-32.8 8,-157.8 393,-157.8 393,-32.8 8,-32.8"/>
</g>
<g id="clust3" class="cluster">
<title>cluster_SeedModule_imports</title>
<polygon fill="none" stroke="black" points="158,-40.8 158,-92.8 385,-92.8 385,-40.8 158,-40.8"/>
</g>
<g id="clust6" class="cluster">
<title>cluster_SeedModule_providers</title>
<polygon fill="none" stroke="black" points="16,-40.8 16,-92.8 150,-92.8 150,-40.8 16,-40.8"/>
</g>
<!-- AuthModule -->
<g id="node1" class="node">
<title>AuthModule</title>
<polygon fill="#8dd3c7" stroke="black" points="376.55,-84.8 373.55,-88.8 352.55,-88.8 349.55,-84.8 289.45,-84.8 289.45,-48.8 376.55,-48.8 376.55,-84.8"/>
<text text-anchor="middle" x="333" y="-62.6" font-family="Times,serif" font-size="14.00">AuthModule</text>
</g>
<!-- SeedModule -->
<g id="node3" class="node">
<title>SeedModule</title>
<polygon fill="#8dd3c7" stroke="black" points="262.27,-149.8 259.27,-153.8 238.27,-153.8 235.27,-149.8 175.73,-149.8 175.73,-113.8 262.27,-113.8 262.27,-149.8"/>
<text text-anchor="middle" x="219" y="-127.6" font-family="Times,serif" font-size="14.00">SeedModule</text>
</g>
<!-- AuthModule&#45;&gt;SeedModule -->
<g id="edge1" class="edge">
<title>AuthModule&#45;&gt;SeedModule</title>
<path fill="none" stroke="black" d="M333,-84.91C333,-104.14 333,-131.8 333,-131.8 333,-131.8 272.42,-131.8 272.42,-131.8"/>
<polygon fill="black" stroke="black" points="272.42,-128.3 262.42,-131.8 272.42,-135.3 272.42,-128.3"/>
</g>
<!-- ClientesModule -->
<g id="node2" class="node">
<title>ClientesModule</title>
<polygon fill="#8dd3c7" stroke="black" points="271.94,-84.8 268.94,-88.8 247.94,-88.8 244.94,-84.8 166.06,-84.8 166.06,-48.8 271.94,-48.8 271.94,-84.8"/>
<text text-anchor="middle" x="219" y="-62.6" font-family="Times,serif" font-size="14.00">ClientesModule</text>
</g>
<!-- ClientesModule&#45;&gt;SeedModule -->
<g id="edge2" class="edge">
<title>ClientesModule&#45;&gt;SeedModule</title>
<path fill="none" stroke="black" d="M219,-84.91C219,-84.91 219,-103.79 219,-103.79"/>
<polygon fill="black" stroke="black" points="215.5,-103.79 219,-113.79 222.5,-103.79 215.5,-103.79"/>
</g>
<!-- SeedService -->
<g id="node4" class="node">
<title>SeedService</title>
<ellipse fill="#fdb462" stroke="black" cx="83" cy="-66.8" rx="58.53" ry="18"/>
<text text-anchor="middle" x="83" y="-62.6" font-family="Times,serif" font-size="14.00">SeedService</text>
</g>
<!-- SeedService&#45;&gt;SeedModule -->
<g id="edge3" class="edge">
<title>SeedService&#45;&gt;SeedModule</title>
<path fill="none" stroke="black" d="M83,-84.91C83,-104.14 83,-131.8 83,-131.8 83,-131.8 165.59,-131.8 165.59,-131.8"/>
<polygon fill="black" stroke="black" points="165.59,-135.3 175.59,-131.8 165.59,-128.3 165.59,-135.3"/>
</g>
</g>
</svg>
