<?xml version="1.0" encoding="UTF-8" standalone="no"?>
<!DOCTYPE svg PUBLIC "-//W3C//DTD SVG 1.1//EN"
 "http://www.w3.org/Graphics/SVG/1.1/DTD/svg11.dtd">
<!-- Generated by graphviz version 5.0.0 (20220707.1540)
 -->
<!-- Title: dependencies Pages: 1 -->
<svg width="861pt" height="174pt"
 viewBox="0.00 0.00 861.00 173.80" xmlns="http://www.w3.org/2000/svg" xmlns:xlink="http://www.w3.org/1999/xlink">
<g id="graph0" class="graph" transform="scale(1 1) rotate(0) translate(4 169.8)">
<title>dependencies</title>
<polygon fill="white" stroke="transparent" points="-4,4 -4,-169.8 857,-169.8 857,4 -4,4"/>
<text text-anchor="middle" x="426.5" y="-8.2" font-family="sans-serif" font-size="14.00">dependencies</text>
<g id="clust1" class="cluster">
<title>cluster_AppModule</title>
<polygon fill="none" stroke="black" stroke-dasharray="1,5" points="8,-32.8 8,-157.8 845,-157.8 845,-32.8 8,-32.8"/>
</g>
<g id="clust3" class="cluster">
<title>cluster_AppModule_imports</title>
<polygon fill="none" stroke="black" points="16,-40.8 16,-92.8 837,-92.8 837,-40.8 16,-40.8"/>
</g>
<!-- AuthModule -->
<g id="node1" class="node">
<title>AuthModule</title>
<polygon fill="#8dd3c7" stroke="black" points="828.55,-84.8 825.55,-88.8 804.55,-88.8 801.55,-84.8 741.45,-84.8 741.45,-48.8 828.55,-48.8 828.55,-84.8"/>
<text text-anchor="middle" x="785" y="-62.6" font-family="Times,serif" font-size="14.00">AuthModule</text>
</g>
<!-- AppModule -->
<g id="node8" class="node">
<title>AppModule</title>
<polygon fill="#8dd3c7" stroke="black" points="452.66,-149.8 449.66,-153.8 428.66,-153.8 425.66,-149.8 369.34,-149.8 369.34,-113.8 452.66,-113.8 452.66,-149.8"/>
<text text-anchor="middle" x="411" y="-127.6" font-family="Times,serif" font-size="14.00">AppModule</text>
</g>
<!-- AuthModule&#45;&gt;AppModule -->
<g id="edge1" class="edge">
<title>AuthModule&#45;&gt;AppModule</title>
<path fill="none" stroke="black" d="M785,-85.09C785,-107.01 785,-140.8 785,-140.8 785,-140.8 462.81,-140.8 462.81,-140.8"/>
<polygon fill="black" stroke="black" points="462.81,-137.3 452.81,-140.8 462.81,-144.3 462.81,-137.3"/>
</g>
<!-- AutoresModule -->
<g id="node2" class="node">
<title>AutoresModule</title>
<polygon fill="#8dd3c7" stroke="black" points="722.88,-84.8 719.88,-88.8 698.88,-88.8 695.88,-84.8 619.12,-84.8 619.12,-48.8 722.88,-48.8 722.88,-84.8"/>
<text text-anchor="middle" x="671" y="-62.6" font-family="Times,serif" font-size="14.00">AutoresModule</text>
</g>
<!-- AutoresModule&#45;&gt;AppModule -->
<g id="edge2" class="edge">
<title>AutoresModule&#45;&gt;AppModule</title>
<path fill="none" stroke="black" d="M671,-84.91C671,-104.14 671,-131.8 671,-131.8 671,-131.8 462.77,-131.8 462.77,-131.8"/>
<polygon fill="black" stroke="black" points="462.77,-128.3 452.77,-131.8 462.77,-135.3 462.77,-128.3"/>
</g>
<!-- CategoriasModule -->
<g id="node3" class="node">
<title>CategoriasModule</title>
<polygon fill="#8dd3c7" stroke="black" points="600.92,-84.8 597.92,-88.8 576.92,-88.8 573.92,-84.8 481.08,-84.8 481.08,-48.8 600.92,-48.8 600.92,-84.8"/>
<text text-anchor="middle" x="541" y="-62.6" font-family="Times,serif" font-size="14.00">CategoriasModule</text>
</g>
<!-- CategoriasModule&#45;&gt;AppModule -->
<g id="edge3" class="edge">
<title>CategoriasModule&#45;&gt;AppModule</title>
<path fill="none" stroke="black" d="M541,-84.83C541,-101.2 541,-122.8 541,-122.8 541,-122.8 462.85,-122.8 462.85,-122.8"/>
<polygon fill="black" stroke="black" points="462.85,-119.3 452.85,-122.8 462.85,-126.3 462.85,-119.3"/>
</g>
<!-- ClientesModule -->
<g id="node4" class="node">
<title>ClientesModule</title>
<polygon fill="#8dd3c7" stroke="black" points="463.94,-84.8 460.94,-88.8 439.94,-88.8 436.94,-84.8 358.06,-84.8 358.06,-48.8 463.94,-48.8 463.94,-84.8"/>
<text text-anchor="middle" x="411" y="-62.6" font-family="Times,serif" font-size="14.00">ClientesModule</text>
</g>
<!-- ClientesModule&#45;&gt;AppModule -->
<g id="edge4" class="edge">
<title>ClientesModule&#45;&gt;AppModule</title>
<path fill="none" stroke="black" d="M411,-84.91C411,-84.91 411,-103.79 411,-103.79"/>
<polygon fill="black" stroke="black" points="407.5,-103.79 411,-113.79 414.5,-103.79 407.5,-103.79"/>
</g>
<!-- LibrosModule -->
<g id="node5" class="node">
<title>LibrosModule</title>
<polygon fill="#8dd3c7" stroke="black" points="340.1,-84.8 337.1,-88.8 316.1,-88.8 313.1,-84.8 243.9,-84.8 243.9,-48.8 340.1,-48.8 340.1,-84.8"/>
<text text-anchor="middle" x="292" y="-62.6" font-family="Times,serif" font-size="14.00">LibrosModule</text>
</g>
<!-- LibrosModule&#45;&gt;AppModule -->
<g id="edge5" class="edge">
<title>LibrosModule&#45;&gt;AppModule</title>
<path fill="none" stroke="black" d="M292,-84.83C292,-101.2 292,-122.8 292,-122.8 292,-122.8 359.05,-122.8 359.05,-122.8"/>
<polygon fill="black" stroke="black" points="359.05,-126.3 369.05,-122.8 359.05,-119.3 359.05,-126.3"/>
</g>
<!-- ProfileModule -->
<g id="node6" class="node">
<title>ProfileModule</title>
<polygon fill="#8dd3c7" stroke="black" points="225.66,-84.8 222.66,-88.8 201.66,-88.8 198.66,-84.8 128.34,-84.8 128.34,-48.8 225.66,-48.8 225.66,-84.8"/>
<text text-anchor="middle" x="177" y="-62.6" font-family="Times,serif" font-size="14.00">ProfileModule</text>
</g>
<!-- ProfileModule&#45;&gt;AppModule -->
<g id="edge6" class="edge">
<title>ProfileModule&#45;&gt;AppModule</title>
<path fill="none" stroke="black" d="M177,-84.91C177,-104.14 177,-131.8 177,-131.8 177,-131.8 359.17,-131.8 359.17,-131.8"/>
<polygon fill="black" stroke="black" points="359.17,-135.3 369.17,-131.8 359.17,-128.3 359.17,-135.3"/>
</g>
<!-- SeedModule -->
<g id="node7" class="node">
<title>SeedModule</title>
<polygon fill="#8dd3c7" stroke="black" points="110.27,-84.8 107.27,-88.8 86.27,-88.8 83.27,-84.8 23.73,-84.8 23.73,-48.8 110.27,-48.8 110.27,-84.8"/>
<text text-anchor="middle" x="67" y="-62.6" font-family="Times,serif" font-size="14.00">SeedModule</text>
</g>
<!-- SeedModule&#45;&gt;AppModule -->
<g id="edge7" class="edge">
<title>SeedModule&#45;&gt;AppModule</title>
<path fill="none" stroke="black" d="M67,-85.09C67,-107.01 67,-140.8 67,-140.8 67,-140.8 359.16,-140.8 359.16,-140.8"/>
<polygon fill="black" stroke="black" points="359.16,-144.3 369.16,-140.8 359.16,-137.3 359.16,-144.3"/>
</g>
</g>
</svg>
