<?xml version="1.0" encoding="UTF-8" standalone="no"?>
<!DOCTYPE svg PUBLIC "-//W3C//DTD SVG 1.1//EN"
 "http://www.w3.org/Graphics/SVG/1.1/DTD/svg11.dtd">
<!-- Generated by graphviz version 5.0.0 (20220707.1540)
 -->
<!-- Title: dependencies Pages: 1 -->
<svg width="318pt" height="174pt"
 viewBox="0.00 0.00 318.00 173.80" xmlns="http://www.w3.org/2000/svg" xmlns:xlink="http://www.w3.org/1999/xlink">
<g id="graph0" class="graph" transform="scale(1 1) rotate(0) translate(4 169.8)">
<title>dependencies</title>
<polygon fill="white" stroke="transparent" points="-4,4 -4,-169.8 314,-169.8 314,4 -4,4"/>
<text text-anchor="middle" x="155" y="-8.2" font-family="sans-serif" font-size="14.00">dependencies</text>
<g id="clust1" class="cluster">
<title>cluster_ProfileModule</title>
<polygon fill="none" stroke="black" stroke-dasharray="1,5" points="8,-32.8 8,-157.8 302,-157.8 302,-32.8 8,-32.8"/>
</g>
<g id="clust6" class="cluster">
<title>cluster_ProfileModule_providers</title>
<polygon fill="none" stroke="black" points="146,-40.8 146,-92.8 294,-92.8 294,-40.8 146,-40.8"/>
</g>
<g id="clust3" class="cluster">
<title>cluster_ProfileModule_imports</title>
<polygon fill="none" stroke="black" points="16,-40.8 16,-92.8 138,-92.8 138,-40.8 16,-40.8"/>
</g>
<!-- ClientesModule -->
<g id="node1" class="node">
<title>ClientesModule</title>
<polygon fill="#8dd3c7" stroke="black" points="129.94,-84.8 126.94,-88.8 105.94,-88.8 102.94,-84.8 24.06,-84.8 24.06,-48.8 129.94,-48.8 129.94,-84.8"/>
<text text-anchor="middle" x="77" y="-62.6" font-family="Times,serif" font-size="14.00">ClientesModule</text>
</g>
<!-- ProfileModule -->
<g id="node2" class="node">
<title>ProfileModule</title>
<polygon fill="#8dd3c7" stroke="black" points="196.66,-149.8 193.66,-153.8 172.66,-153.8 169.66,-149.8 99.34,-149.8 99.34,-113.8 196.66,-113.8 196.66,-149.8"/>
<text text-anchor="middle" x="148" y="-127.6" font-family="Times,serif" font-size="14.00">ProfileModule</text>
</g>
<!-- ClientesModule&#45;&gt;ProfileModule -->
<g id="edge1" class="edge">
<title>ClientesModule&#45;&gt;ProfileModule</title>
<path fill="none" stroke="black" d="M114.44,-84.91C114.44,-84.91 114.44,-103.79 114.44,-103.79"/>
<polygon fill="black" stroke="black" points="110.94,-103.79 114.44,-113.79 117.94,-103.79 110.94,-103.79"/>
</g>
<!-- ProfileService -->
<g id="node3" class="node">
<title>ProfileService</title>
<ellipse fill="#fdb462" stroke="black" cx="220" cy="-66.8" rx="66.05" ry="18"/>
<text text-anchor="middle" x="220" y="-62.6" font-family="Times,serif" font-size="14.00">ProfileService</text>
</g>
<!-- ProfileService&#45;&gt;ProfileModule -->
<g id="edge2" class="edge">
<title>ProfileService&#45;&gt;ProfileModule</title>
<path fill="none" stroke="black" d="M175.28,-80.27C175.28,-80.27 175.28,-103.66 175.28,-103.66"/>
<polygon fill="black" stroke="black" points="171.78,-103.66 175.28,-113.66 178.78,-103.66 171.78,-103.66"/>
</g>
</g>
</svg>
