<?xml version="1.0" encoding="UTF-8" standalone="no"?>
<!DOCTYPE svg PUBLIC "-//W3C//DTD SVG 1.1//EN"
 "http://www.w3.org/Graphics/SVG/1.1/DTD/svg11.dtd">
<!-- Generated by graphviz version 5.0.0 (20220707.1540)
 -->
<!-- Title: dependencies Pages: 1 -->
<svg width="316pt" height="247pt"
 viewBox="0.00 0.00 316.00 246.80" xmlns="http://www.w3.org/2000/svg" xmlns:xlink="http://www.w3.org/1999/xlink">
<g id="graph0" class="graph" transform="scale(1 1) rotate(0) translate(4 242.8)">
<title>dependencies</title>
<polygon fill="white" stroke="transparent" points="-4,4 -4,-242.8 312,-242.8 312,4 -4,4"/>
<text text-anchor="middle" x="154" y="-8.2" font-family="sans-serif" font-size="14.00">dependencies</text>
<g id="clust1" class="cluster">
<title>cluster_LibrosModule</title>
<polygon fill="none" stroke="black" stroke-dasharray="1,5" points="8,-32.8 8,-230.8 300,-230.8 300,-32.8 8,-32.8"/>
</g>
<g id="clust3" class="cluster">
<title>cluster_LibrosModule_imports</title>
<polygon fill="none" stroke="black" points="170,-40.8 170,-92.8 292,-92.8 292,-40.8 170,-40.8"/>
</g>
<g id="clust4" class="cluster">
<title>cluster_LibrosModule_exports</title>
<polygon fill="none" stroke="black" points="103,-170.8 103,-222.8 217,-222.8 217,-170.8 103,-170.8"/>
</g>
<g id="clust6" class="cluster">
<title>cluster_LibrosModule_providers</title>
<polygon fill="none" stroke="black" points="16,-40.8 16,-92.8 162,-92.8 162,-40.8 16,-40.8"/>
</g>
<!-- ClientesModule -->
<g id="node1" class="node">
<title>ClientesModule</title>
<polygon fill="#8dd3c7" stroke="black" points="283.94,-84.8 280.94,-88.8 259.94,-88.8 256.94,-84.8 178.06,-84.8 178.06,-48.8 283.94,-48.8 283.94,-84.8"/>
<text text-anchor="middle" x="231" y="-62.6" font-family="Times,serif" font-size="14.00">ClientesModule</text>
</g>
<!-- LibrosModule -->
<g id="node2" class="node">
<title>LibrosModule</title>
<polygon fill="#8dd3c7" stroke="black" points="208.1,-149.8 205.1,-153.8 184.1,-153.8 181.1,-149.8 111.9,-149.8 111.9,-113.8 208.1,-113.8 208.1,-149.8"/>
<text text-anchor="middle" x="160" y="-127.6" font-family="Times,serif" font-size="14.00">LibrosModule</text>
</g>
<!-- ClientesModule&#45;&gt;LibrosModule -->
<g id="edge1" class="edge">
<title>ClientesModule&#45;&gt;LibrosModule</title>
<path fill="none" stroke="black" d="M193.17,-84.91C193.17,-84.91 193.17,-103.79 193.17,-103.79"/>
<polygon fill="black" stroke="black" points="189.67,-103.79 193.17,-113.79 196.67,-103.79 189.67,-103.79"/>
</g>
<!-- LibrosService  -->
<g id="node3" class="node">
<title>LibrosService </title>
<polygon fill="#fb8072" stroke="black" points="209.03,-214.8 110.97,-214.8 110.97,-178.8 209.03,-178.8 209.03,-214.8"/>
<text text-anchor="middle" x="160" y="-192.6" font-family="Times,serif" font-size="14.00">LibrosService </text>
</g>
<!-- LibrosModule&#45;&gt;LibrosService  -->
<g id="edge2" class="edge">
<title>LibrosModule&#45;&gt;LibrosService </title>
<path fill="none" stroke="black" stroke-dasharray="5,2" d="M160,-149.91C160,-149.91 160,-168.79 160,-168.79"/>
<polygon fill="black" stroke="black" points="156.5,-168.79 160,-178.79 163.5,-168.79 156.5,-168.79"/>
</g>
<!-- LibrosService -->
<g id="node4" class="node">
<title>LibrosService</title>
<ellipse fill="#fdb462" stroke="black" cx="89" cy="-66.8" rx="65.41" ry="18"/>
<text text-anchor="middle" x="89" y="-62.6" font-family="Times,serif" font-size="14.00">LibrosService</text>
</g>
<!-- LibrosService&#45;&gt;LibrosModule -->
<g id="edge3" class="edge">
<title>LibrosService&#45;&gt;LibrosModule</title>
<path fill="none" stroke="black" d="M133.08,-80.27C133.08,-80.27 133.08,-103.66 133.08,-103.66"/>
<polygon fill="black" stroke="black" points="129.58,-103.66 133.08,-113.66 136.58,-103.66 129.58,-103.66"/>
</g>
</g>
</svg>
