<?xml version="1.0" encoding="UTF-8" standalone="no"?>
<!DOCTYPE svg PUBLIC "-//W3C//DTD SVG 1.1//EN"
 "http://www.w3.org/Graphics/SVG/1.1/DTD/svg11.dtd">
<!-- Generated by graphviz version 5.0.0 (20220707.1540)
 -->
<!-- Title: dependencies Pages: 1 -->
<svg width="306pt" height="247pt"
 viewBox="0.00 0.00 306.00 246.80" xmlns="http://www.w3.org/2000/svg" xmlns:xlink="http://www.w3.org/1999/xlink">
<g id="graph0" class="graph" transform="scale(1 1) rotate(0) translate(4 242.8)">
<title>dependencies</title>
<polygon fill="white" stroke="transparent" points="-4,4 -4,-242.8 302,-242.8 302,4 -4,4"/>
<text text-anchor="middle" x="149" y="-8.2" font-family="sans-serif" font-size="14.00">dependencies</text>
<g id="clust1" class="cluster">
<title>cluster_AuthModule</title>
<polygon fill="none" stroke="black" stroke-dasharray="1,5" points="8,-32.8 8,-230.8 290,-230.8 290,-32.8 8,-32.8"/>
</g>
<g id="clust4" class="cluster">
<title>cluster_AuthModule_exports</title>
<polygon fill="none" stroke="black" points="34,-170.8 34,-222.8 244,-222.8 244,-170.8 34,-170.8"/>
</g>
<g id="clust6" class="cluster">
<title>cluster_AuthModule_providers</title>
<polygon fill="none" stroke="black" points="16,-40.8 16,-92.8 282,-92.8 282,-40.8 16,-40.8"/>
</g>
<!-- AuthService  -->
<g id="node1" class="node">
<title>AuthService </title>
<polygon fill="#fb8072" stroke="black" points="235.98,-214.8 146.02,-214.8 146.02,-178.8 235.98,-178.8 235.98,-214.8"/>
<text text-anchor="middle" x="191" y="-192.6" font-family="Times,serif" font-size="14.00">AuthService </text>
</g>
<!-- JwtStrategy  -->
<g id="node2" class="node">
<title>JwtStrategy </title>
<polygon fill="#fb8072" stroke="black" points="127.6,-214.8 42.4,-214.8 42.4,-178.8 127.6,-178.8 127.6,-214.8"/>
<text text-anchor="middle" x="85" y="-192.6" font-family="Times,serif" font-size="14.00">JwtStrategy </text>
</g>
<!-- AuthModule -->
<g id="node3" class="node">
<title>AuthModule</title>
<polygon fill="#8dd3c7" stroke="black" points="145.55,-149.8 142.55,-153.8 121.55,-153.8 118.55,-149.8 58.45,-149.8 58.45,-113.8 145.55,-113.8 145.55,-149.8"/>
<text text-anchor="middle" x="102" y="-127.6" font-family="Times,serif" font-size="14.00">AuthModule</text>
</g>
<!-- AuthModule&#45;&gt;AuthService  -->
<g id="edge1" class="edge">
<title>AuthModule&#45;&gt;AuthService </title>
<path fill="none" stroke="black" stroke-dasharray="5,2" d="M145.74,-131.8C148.96,-131.8 150.98,-131.8 150.98,-131.8 150.98,-131.8 150.98,-168.69 150.98,-168.69"/>
<polygon fill="black" stroke="black" points="147.48,-168.69 150.98,-178.69 154.48,-168.69 147.48,-168.69"/>
</g>
<!-- AuthModule&#45;&gt;JwtStrategy  -->
<g id="edge2" class="edge">
<title>AuthModule&#45;&gt;JwtStrategy </title>
<path fill="none" stroke="black" stroke-dasharray="5,2" d="M93.01,-149.91C93.01,-149.91 93.01,-168.79 93.01,-168.79"/>
<polygon fill="black" stroke="black" points="89.51,-168.79 93.01,-178.79 96.51,-168.79 89.51,-168.79"/>
</g>
<!-- AuthService -->
<g id="node4" class="node">
<title>AuthService</title>
<ellipse fill="#fdb462" stroke="black" cx="215" cy="-66.8" rx="59.11" ry="18"/>
<text text-anchor="middle" x="215" y="-62.6" font-family="Times,serif" font-size="14.00">AuthService</text>
</g>
<!-- AuthService&#45;&gt;AuthModule -->
<g id="edge3" class="edge">
<title>AuthService&#45;&gt;AuthModule</title>
<path fill="none" stroke="black" d="M155.49,-66.8C147.34,-66.8 141.7,-66.8 141.7,-66.8 141.7,-66.8 141.7,-103.69 141.7,-103.69"/>
<polygon fill="black" stroke="black" points="138.2,-103.69 141.7,-113.69 145.2,-103.69 138.2,-103.69"/>
</g>
<!-- JwtStrategy -->
<g id="node5" class="node">
<title>JwtStrategy</title>
<ellipse fill="#fdb462" stroke="black" cx="81" cy="-66.8" rx="56.77" ry="18"/>
<text text-anchor="middle" x="81" y="-62.6" font-family="Times,serif" font-size="14.00">JwtStrategy</text>
</g>
<!-- JwtStrategy&#45;&gt;AuthModule -->
<g id="edge4" class="edge">
<title>JwtStrategy&#45;&gt;AuthModule</title>
<path fill="none" stroke="black" d="M97.93,-84.22C97.93,-84.22 97.93,-103.42 97.93,-103.42"/>
<polygon fill="black" stroke="black" points="94.43,-103.42 97.93,-113.42 101.43,-103.42 94.43,-103.42"/>
</g>
</g>
</svg>
